<svg xmlns="http://www.w3.org/2000/svg" xmlns:xlink="http://www.w3.org/1999/xlink" id="Layer_1" version="1.1" viewBox="0 0 24 24" xml:space="preserve" style="enable-background:new 0 0 24 24"><style type="text/css">.st0{fill:#1e232d}</style><path d="M8.8,8C8.4,7.6,8,6.9,8,6s0.4-1.6,0.8-2L7.2,2.7C6.4,3.6,6,4.8,6,6s0.4,2.4,1.2,3.3L8.8,8z M14,6 c0-1.1-0.9-2-2-2s-2,0.9-2,2c0,0.7,0.4,1.4,1,1.7L5,24h2.1l0-0.1l4.9-4.3l4.9,4.3l0,0.1H19L13,7.7C13.6,7.4,14,6.7,14,6z M8.6,19.9 l0.9-2.5l1,0.8L8.6,19.9z M15.4,19.9l-5.1-4.5l1.7-4.7L15.4,19.9z M4,6c0-1.5,0.6-2.9,1.8-4.4L4.2,0.4C2.7,2.2,2,4.1,2,6 s0.7,3.8,2.2,5.6l1.5-1.3C4.6,8.9,4,7.5,4,6z M16.8,9.3C17.6,8.4,18,7.2,18,6c0-1.2-0.4-2.4-1.2-3.3L15.2,4C15.6,4.4,16,5.1,16,6 c0,0.9-0.4,1.6-0.8,2L16.8,9.3z M19.8,0.4l-1.5,1.3C19.4,3.1,20,4.5,20,6c0,1.5-0.6,2.9-1.8,4.4l1.5,1.3C21.3,9.8,22,7.9,22,6 C22,4.1,21.3,2.2,19.8,0.4z" class="st0"/></svg>