<svg xmlns="http://www.w3.org/2000/svg" width="13.078" height="15" viewBox="0 0 13.078 15">
  <g id="filming_services_icon" transform="translate(-3 -1)">
    <path id="Path_31" data-name="Path 31" d="M16.336,14.025a.428.428,0,0,0-.484,0l-2.225,1.15a1.384,1.384,0,0,0-1.4-1.2H5.451A1.45,1.45,0,0,0,4,15.475v3a1.45,1.45,0,0,0,1.451,1.5H7.918l-1.451,2.2a.5.5,0,0,0,.145.7.467.467,0,0,0,.677-.15l1.548-2.4,1.548,2.4a.435.435,0,0,0,.387.2.672.672,0,0,0,.29-.1.5.5,0,0,0,.145-.7l-1.451-2.2h2.467a1.384,1.384,0,0,0,1.4-1.2l2.225,1.15a.262.262,0,0,0,.242.1,2.035,2.035,0,0,0,.242-.05.529.529,0,0,0,.242-.45v-5A.6.6,0,0,0,16.336,14.025Z" transform="translate(-0.5 -6.959)" fill="#fff"/>
    <path id="Path_32" data-name="Path 32" d="M11,1A3.034,3.034,0,0,0,8.5,2.35,3,3,0,0,0,3,4,3,3,0,0,0,8.5,5.65,3,3,0,0,0,14,4,3.009,3.009,0,0,0,11,1ZM6,5A1,1,0,1,1,7,4,1,1,0,0,1,6,5Zm5,0a1,1,0,1,1,1-1A1,1,0,0,1,11,5Z" fill="#fff"/>
  </g>
</svg>
