<svg xmlns="http://www.w3.org/2000/svg" width="11.425" height="15" viewBox="0 0 11.425 15"><defs><style>.a{fill:#fff;fill-rule:evenodd;}</style></defs><g transform="translate(-80.823 -26.002)"><g transform="translate(80.823 26.002)"><path class="a" d="M81.377,36.009h-.228v.229h.228Zm5.526-.164h-.558V36.4H86.9Zm5.345.164h-.228v.229h.228Zm-5.936-9.743v.791a1.441,1.441,0,0,1,.174-.021h0l.028,0h.136a1.408,1.408,0,0,1,.2.023v-.791A.269.269,0,0,0,86.312,26.266Zm.61,1h-.009a1.3,1.3,0,0,0-.281-.042H86.48a1.276,1.276,0,1,0,.442.042Zm.044.846a.547.547,0,1,0,.159.386A.545.545,0,0,0,86.966,28.114Zm4.949,12.244a.095.095,0,0,1,0,.189H91.09a.095.095,0,1,1,0-.189Zm-2.53.454a.095.095,0,0,1,0,.189H85.646a.095.095,0,0,1,0-.189ZM80.918,41a.095.095,0,0,1,0-.189h1.65a.095.095,0,1,1,0,.189Zm3.105,0a.095.095,0,0,1,0-.189h.753a.095.095,0,0,1,0,.189Zm5.589-3.814a5.839,5.839,0,0,0,.712-.969h-.967Q89.484,36.7,89.612,37.188ZM88.3,35.676a4.6,4.6,0,0,1-.646.338l-.039.015H88.4Zm-3.539.354h.809l-.023-.009a4.254,4.254,0,0,1-.681-.378Zm-.956.189h-.945a5.62,5.62,0,0,0,.69.95Zm-.313,1.165h0a5.7,5.7,0,0,1-.844-1.165H81.619a.095.095,0,0,1,0-.189h.938q-.042-.091-.079-.185a4.421,4.421,0,0,1-.314-1.639.095.095,0,1,1,.189,0,4.221,4.221,0,0,0,.3,1.569c.034.086.071.171.111.254h1.092l.314-1.172a5.1,5.1,0,0,1-.354-.823,2.879,2.879,0,0,1-.08-.673.094.094,0,0,1,.092-.094H83.7V33h.268v.269h-.131a.094.094,0,0,1,.092.094A2.68,2.68,0,0,0,84,33.99a3.693,3.693,0,0,0,.245.593l1.341-5a1.468,1.468,0,0,0,.8.377l-1.472,5.494a4.22,4.22,0,0,0,.7.4,2.667,2.667,0,0,0,.444.131v.242H84.711l-.417,1.558a5.848,5.848,0,0,0,1.161.514,4.272,4.272,0,0,0,2.263,0,5.656,5.656,0,0,0,1.15-.5l-.421-1.573H87.167v-.251a2.636,2.636,0,0,0,.418-.128,4.443,4.443,0,0,0,.665-.354l-1.482-5.53a1.461,1.461,0,0,0,.808-.377c.481,1.655.926,3.351,1.365,5.043a4.358,4.358,0,0,0,.241-.613,2.678,2.678,0,0,0,.079-.648.094.094,0,0,1,.092-.094h-.132V33h.268v.269h-.131a.094.094,0,0,1,.092.094,2.869,2.869,0,0,1-.085.693,5.491,5.491,0,0,1-.351.849l.293,1.126H90.42c.038-.078.073-.158.105-.24a4.224,4.224,0,0,0,.306-1.584.094.094,0,1,1,.189,0,4.413,4.413,0,0,1-.32,1.654c-.023.058-.047.114-.073.17h1.136a.095.095,0,0,1,0,.189H90.537a6.037,6.037,0,0,1-.868,1.185l.094.351a.438.438,0,0,1-.042.328l0,0a.434.434,0,0,1-.119.133l.308,1.161a.094.094,0,0,1-.182.048l-.3-1.131a.438.438,0,0,1-.507-.314v0a5.83,5.83,0,0,1-1.151.5,4.435,4.435,0,0,1-2.363,0,5.929,5.929,0,0,1-1.162-.507l0,.017h0a.406.406,0,0,1-.459.317l-.294,1.112a.094.094,0,1,1-.182-.048l.3-1.122a.413.413,0,0,1-.206-.487Zm-.527,3.163a.095.095,0,1,1,0-.189H90.11a.095.095,0,0,1,0,.189ZM86.58,27.766a.735.735,0,1,1-.519.215A.732.732,0,0,1,86.58,27.766Z" transform="translate(-80.823 -26.002)"/></g></g></svg>