<svg xmlns="http://www.w3.org/2000/svg" width="12.712" height="15" viewBox="0 0 12.712 15">
  <path id="livestreaming_icon" d="M6.322,5.231a1.843,1.843,0,0,1,0-2.542L5.305,1.862a3.159,3.159,0,0,0-.763,2.1,3.159,3.159,0,0,0,.763,2.1ZM9.627,3.959a1.271,1.271,0,1,0-2.542,0A1.23,1.23,0,0,0,7.72,5.04L3.907,15.4H5.242v-.064L8.356,12.6l3.114,2.733V15.4h1.335L8.992,5.04A1.23,1.23,0,0,0,9.627,3.959ZM6.195,12.794l.572-1.589.636.508Zm4.322,0L7.275,9.934,8.356,6.947ZM3.271,3.959a4.423,4.423,0,0,1,1.144-2.8L3.4.4A5.508,5.508,0,0,0,2,3.959,5.508,5.508,0,0,0,3.4,7.519l.953-.826A4.39,4.39,0,0,1,3.271,3.959Zm8.136,2.1a3.159,3.159,0,0,0,.763-2.1,3.159,3.159,0,0,0-.763-2.1l-1.017.826a1.843,1.843,0,0,1,0,2.542ZM13.314.4l-.953.826a4.39,4.39,0,0,1,1.081,2.733,4.423,4.423,0,0,1-1.144,2.8l.953.826a5.544,5.544,0,0,0,1.462-3.623A5.508,5.508,0,0,0,13.314.4Z" transform="translate(-2 -0.4)" fill="#fff"/>
</svg>
