<svg xmlns="http://www.w3.org/2000/svg" id="instagram_logo_2" width="24.63" height="24.63" viewBox="0 0 24.63 24.63"><g id="Group_1" data-name="Group 1" transform="translate(0)"><ellipse id="Ellipse_6" cx="12.315" cy="12.315" data-name="Ellipse 6" rx="12.315" ry="12.315"/></g><g id="Group_5" data-name="Group 5" transform="translate(4.604 4.682)"><g id="Group_2" data-name="Group 2"><path id="Path_10" fill="#fff" d="M35.189,39.345H28.156A4.16,4.16,0,0,1,24,35.189V28.156A4.16,4.16,0,0,1,28.156,24h7.033a4.16,4.16,0,0,1,4.156,4.156v7.033A4.16,4.16,0,0,1,35.189,39.345ZM28.156,25.279a2.88,2.88,0,0,0-2.877,2.877v7.033a2.88,2.88,0,0,0,2.877,2.877h7.033a2.88,2.88,0,0,0,2.877-2.877V28.156a2.88,2.88,0,0,0-2.877-2.877Z" data-name="Path 10" transform="translate(-24 -24)"/></g><g id="Group_3" data-name="Group 3" transform="translate(3.836 3.836)"><path id="Path_11" fill="#fff" d="M47.836,51.673a3.836,3.836,0,1,1,3.836-3.836A3.836,3.836,0,0,1,47.836,51.673Zm0-6.393a2.557,2.557,0,1,0,2.557,2.557,2.557,2.557,0,0,0-2.557-2.557Z" data-name="Path 11" transform="translate(-44 -44)"/></g><g id="Group_4" data-name="Group 4" transform="translate(10.869 2.718)"><ellipse id="Ellipse_7" cx=".879" cy=".879" fill="#fff" data-name="Ellipse 7" rx=".879" ry=".879" transform="translate(0 0)"/></g></g></svg>