<svg xmlns="http://www.w3.org/2000/svg" width="24.265" height="24.265" viewBox="0 0 24.265 24.265"><g id="youtube_logo" transform="translate(0)"><ellipse id="Ellipse_8" cx="11.196" cy="11.196" fill="#fff" data-name="Ellipse 8" rx="11.196" ry="11.196" transform="translate(0.935 1.873)"/><path id="youtube_logo-2" fill-rule="evenodd" d="M12.131,0A12.132,12.132,0,1,1,0,12.132,12.133,12.133,0,0,1,12.131,0ZM19.4,8.482a1.9,1.9,0,0,0-1.343-1.343,45.26,45.26,0,0,0-5.924-.317A45.26,45.26,0,0,0,6.2,7.138,1.9,1.9,0,0,0,4.86,8.482a19.744,19.744,0,0,0-.316,3.651,19.742,19.742,0,0,0,.316,3.651A1.9,1.9,0,0,0,6.2,17.126a45.372,45.372,0,0,0,5.924.316,45.366,45.366,0,0,0,5.924-.316A1.9,1.9,0,0,0,19.4,15.783a19.742,19.742,0,0,0,.316-3.651A19.744,19.744,0,0,0,19.4,8.482Zm-8.781,5.923V9.852l3.94,2.28Z" data-name="youtube_logo" transform="translate(0)"/></g></svg>