<svg xmlns="http://www.w3.org/2000/svg" width="24.63" height="24.63" viewBox="0 0 24.63 24.63"><g id="facebook_logo" transform="translate(0)"><path id="Path_7" d="M12.315,24.63h0A12.315,12.315,0,0,1,0,12.315H0A12.315,12.315,0,0,1,12.315,0h0A12.315,12.315,0,0,1,24.63,12.315h0A12.315,12.315,0,0,1,12.315,24.63Z" data-name="Path 7" transform="translate(0 0)"/><path id="f" fill="#fff" d="M350.849,172.009v-9.539h3.2l.48-3.717h-3.683v-2.374c0-1.076.3-1.811,1.842-1.811h1.968v-3.323a26.712,26.712,0,0,0-2.87-.146c-2.836,0-4.781,1.732-4.781,4.913v2.741H343.8v3.717h3.209v9.537Z" transform="translate(-335.332 -147.378)"/></g></svg>