<svg xmlns="http://www.w3.org/2000/svg" width="52.434" height="52.434" viewBox="0 0 52.434 52.434"><defs><style>.a{fill:#0091ad;}.b{fill:#fef8f8;}</style></defs><g transform="translate(0)"><path class="a" d="M26.217,52.434h0A26.217,26.217,0,0,1,0,26.217H0A26.217,26.217,0,0,1,26.217,0h0A26.217,26.217,0,0,1,52.434,26.217h0A26.217,26.217,0,0,1,26.217,52.434Z" transform="translate(0)"/><path class="b" d="M358.808,195.613V175.3h6.816l1.022-7.913h-7.84v-5.054c0-2.291.636-3.855,3.921-3.855h4.19v-7.074a56.863,56.863,0,0,0-6.109-.31c-6.038,0-10.177,3.686-10.177,10.46V167.4H343.8v7.913h6.832v20.3Z" transform="translate(-325.774 -143.178)"/></g></svg>