<svg xmlns="http://www.w3.org/2000/svg" width="52.434" height="52.434" viewBox="0 0 52.434 52.434"><defs><style>.a{fill:#0091ad;}.b{fill:#fff;}</style></defs><g transform="translate(0 0)"><ellipse class="a" cx="26.217" cy="26.217" rx="26.217" ry="26.217"/></g><g transform="translate(9.8 9.967)"><path class="b" d="M47.819,56.666H32.847A8.857,8.857,0,0,1,24,47.819V32.847A8.857,8.857,0,0,1,32.847,24H47.819a8.857,8.857,0,0,1,8.847,8.847V47.819A8.857,8.857,0,0,1,47.819,56.666ZM32.847,26.722a6.132,6.132,0,0,0-6.125,6.125V47.819a6.132,6.132,0,0,0,6.125,6.125H47.819a6.132,6.132,0,0,0,6.125-6.125V32.847a6.132,6.132,0,0,0-6.125-6.125Z" transform="translate(-24 -24)"/><g transform="translate(8.167 8.167)"><path class="b" d="M52.167,60.334a8.167,8.167,0,1,1,8.167-8.167A8.167,8.167,0,0,1,52.167,60.334Zm0-13.611a5.444,5.444,0,1,0,5.444,5.444,5.444,5.444,0,0,0-5.444-5.444Z" transform="translate(-44 -44)"/></g><g transform="translate(23.139 5.785)"><ellipse class="b" cx="1.872" cy="1.872" rx="1.872" ry="1.872" transform="translate(0 0)"/></g></g></svg>