<svg xmlns="http://www.w3.org/2000/svg" width="51.649" height="51.649" viewBox="0 0 51.649 51.649"><defs><style>.a{fill:#fff;stroke:#707070;}.b{fill:#0091ad;}.c{stroke:none;}.d{fill:none;}</style></defs><g class="a" transform="translate(3.839 4.538)"><ellipse class="c" cx="21.992" cy="21.282" rx="21.992" ry="21.282"/><ellipse class="d" cx="21.992" cy="21.282" rx="21.492" ry="20.782"/></g><g transform="translate(0 0)"><path class="b" d="M270.75,213.892v-.054c-.011.017-.025.037-.037.054Z" transform="translate(-243.357 -192.391)"/><path class="b" d="M32.925,7.1A25.825,25.825,0,1,0,58.743,32.921,25.825,25.825,0,0,0,32.925,7.1ZM25.813,42.965H20.228v-16.8h5.583ZM23.021,23.873h-.038a2.911,2.911,0,1,1,.075-5.809,2.912,2.912,0,1,1-.037,5.806ZM45.953,42.965H40.368V33.976c0-2.258-.809-3.8-2.83-3.8a3.057,3.057,0,0,0-2.86,2.043,3.813,3.813,0,0,0-.184,1.362v9.375H28.9s.075-15.222,0-16.8h5.585v2.383a5.545,5.545,0,0,1,5.031-2.771c3.675,0,6.43,2.4,6.432,7.56v9.634Z" transform="translate(-7.094 -7.1)"/></g></svg>