<svg xmlns="http://www.w3.org/2000/svg" width="51.656" height="51.656" viewBox="0 0 51.656 51.656"><defs><style>.a{fill:#fff;stroke:#707070;}.b{fill:#0091ad;fill-rule:evenodd;}.c{stroke:none;}.d{fill:none;}</style></defs><g transform="translate(0)"><g class="a" transform="translate(1.991 3.988)"><ellipse class="c" cx="23.834" cy="23.834" rx="23.834" ry="23.834"/><ellipse class="d" cx="23.834" cy="23.834" rx="23.334" ry="23.334"/></g><path class="b" d="M25.825,0A25.828,25.828,0,1,1,0,25.827,25.828,25.828,0,0,1,25.825,0ZM41.29,18.056a4.042,4.042,0,0,0-2.86-2.86c-2.517-.675-12.611-.675-12.611-.675s-10.094,0-12.611.675a4.044,4.044,0,0,0-2.86,2.86,42.033,42.033,0,0,0-.674,7.771,42.029,42.029,0,0,0,.674,7.771,4.044,4.044,0,0,0,2.86,2.86c2.518.674,12.611.674,12.611.674s10.094,0,12.611-.674a4.042,4.042,0,0,0,2.86-2.86,42.028,42.028,0,0,0,.674-7.771A42.033,42.033,0,0,0,41.29,18.056ZM22.6,30.666V20.974l8.388,4.854Z" transform="translate(0)"/></g></svg>