<svg xmlns="http://www.w3.org/2000/svg" width="114" height="38" fill="none" viewBox="0 0 114 38"><g clip-path="url(#clip0)"><g clip-path="url(#clip1)"><path fill="#292529" d="M5.37465 7.63254H0V37.4795H5.37465V7.63254Z"/><path fill="#292529" d="M9.70264 15.1067H14.6316V17.1658C15.6814 15.1463 18.4282 14.3807 20.5312 14.3807C22.8322 14.3807 25.097 15.3509 26.51 17.1658C26.7114 17.3671 26.8731 17.6112 27.0349 17.8521C27.1967 17.5683 27.398 17.3275 27.5994 17.1658C29.1742 15.2684 31.7196 14.3807 34.1461 14.3807C36.774 14.3807 39.1972 15.1463 40.9733 17.1658C43.0334 19.3865 43.2744 22.0132 43.2744 24.9204V37.4795H37.8997V25.5638C37.8997 24.2703 37.8601 22.4125 37.0909 21.2839C36.4042 20.2346 35.0308 19.6274 33.7367 19.6274C32.2412 19.6274 30.8282 20.2742 30.0193 21.5644C29.0917 23.0197 29.1709 25.2008 29.1709 26.8145V37.4762H23.8028V25.5638C23.8028 24.1086 23.8028 22.7359 22.9544 21.4456C22.1852 20.2742 20.8118 19.6274 19.4384 19.6274C15.1565 19.6274 15.074 23.6664 15.074 26.8178V37.4795H9.70264V15.1067Z"/><path fill="#292529" d="M47.2725 7.63254H52.6471V15.1066H57.2955V19.8716H52.6471V37.4795H47.2725V7.63254Z"/><path fill="#B5002F" d="M103.175 28.1377C102.363 28.1377 101.587 27.8638 101.095 27.4018C100.897 27.2104 96.3114 22.7985 94.555 21.1486C93.9443 20.5745 93.6273 19.8254 93.6603 19.04C93.6934 18.2481 94.0796 17.5155 94.7531 16.9743L103.749 10.477C104.67 9.85331 105.618 9.52333 106.49 9.52333C107.959 9.52333 109.18 10.4737 109.53 11.886L111.828 21.4423C112.072 22.4554 111.498 23.7984 110.596 24.3165L104.571 27.7978C104.192 28.0189 103.697 28.1377 103.175 28.1377ZM113.885 20.9473L111.587 11.3844C110.999 9.00526 108.949 7.40814 106.486 7.40814C105.182 7.40814 103.819 7.86682 102.541 8.73797L93.4854 15.2782L93.4557 15.3013C92.2804 16.2319 91.6003 17.5254 91.5409 18.9443C91.4814 20.3369 92.0493 21.703 93.1057 22.6929C94.8819 24.3627 99.5863 28.89 99.6325 28.9362L99.6391 28.9428C100.527 29.7777 101.818 30.2562 103.175 30.2562C104.076 30.2562 104.925 30.0417 105.628 29.6325L111.653 26.1512C113.37 25.1612 114.35 22.8744 113.885 20.9473Z"/><path fill="#E00027" d="M97.2918 18.5252C96.998 18.5252 96.7207 18.4823 96.4631 18.3998L91.0258 16.6344C89.6854 16.1989 88.5068 14.5819 88.5068 13.1696V4.87055C88.5068 3.98619 88.7379 3.26353 89.1704 2.77516C89.5567 2.34618 90.0981 2.11849 90.7451 2.11849C91.1809 2.11849 91.653 2.22078 92.1449 2.41877L101.577 6.23007C102.554 6.62605 103.274 7.35202 103.601 8.26937C103.928 9.19002 103.825 10.2064 103.317 11.1303L100.085 16.971C99.5797 17.8851 98.4308 18.5252 97.2918 18.5252ZM105.598 7.55991C105.067 6.06178 103.921 4.89035 102.369 4.26338L92.9406 0.452076C92.1945 0.151792 91.4549 0 90.7485 0C88.1833 0 86.3906 2.003 86.3906 4.87055V13.1696C86.3906 15.5158 88.1404 17.9247 90.3721 18.6473L95.8128 20.4127C96.2816 20.5645 96.7801 20.6437 97.2951 20.6437C99.2 20.6437 101.069 19.5779 101.943 17.994L105.172 12.1533C105.981 10.6914 106.133 9.06133 105.598 7.55991Z"/><path fill="#EC6D1F" d="M78.3354 16.915L93.1091 11.4142C93.4227 11.302 93.7297 11.2459 94.0235 11.2459C95.0338 11.2459 95.77 11.8992 95.9912 12.9882L96.9089 17.4825L98.0248 22.9603C98.0941 23.3067 98.0644 23.607 97.9357 23.7621C97.8168 23.9073 97.5956 23.937 97.4306 23.937C97.3216 23.937 97.2061 23.9238 97.0806 23.8974L79.1706 20.1785L79.1607 20.1752L79.1508 20.1719C77.7939 19.9112 76.9125 19.2908 76.853 18.5583C76.8035 17.928 77.3978 17.2648 78.3354 16.915ZM100.098 22.5379L98.0644 12.5658C97.6452 10.51 96.0209 9.12738 94.0202 9.12738C93.4788 9.12738 92.9308 9.22638 92.3827 9.42106L77.5926 14.9285C75.7273 15.6247 74.6081 17.1196 74.7435 18.7365C74.8128 19.5779 75.2189 20.3501 75.9121 20.9672C76.6153 21.5908 77.5661 22.0231 78.7447 22.2541L96.6481 25.973C96.9122 26.0291 97.1764 26.0555 97.4273 26.0555C98.3087 26.0555 99.0713 25.7189 99.5732 25.1018C100.118 24.4419 100.303 23.5311 100.098 22.5379Z"/><path fill="#F08400" d="M67.1139 21.7293C66.0871 22.0098 65.4071 22.0692 65.0967 21.6963C64.8788 21.4323 64.9119 20.878 65.4434 19.7692L71.4717 7.25627C71.9273 6.31582 72.5678 5.77465 73.228 5.77465C73.7926 5.77465 74.3967 6.15083 74.9348 6.8339C76.711 9.09428 81.597 15.2716 81.6433 15.331C82.0724 15.8787 82.2309 16.4232 82.0889 16.872C81.947 17.3175 81.5046 17.6705 80.841 17.8685L67.1139 21.7293ZM83.3071 14.0143C83.2576 13.9516 78.3749 7.77765 76.602 5.52057C75.6545 4.31613 74.4595 3.65286 73.2313 3.65286C71.7226 3.65286 70.3855 4.62961 69.5635 6.33562L63.5352 18.8486C62.5547 20.8813 62.8683 22.1319 63.3008 22.8216C63.7993 23.6168 64.7138 24.0524 65.8693 24.0524C66.4272 24.0524 67.0445 23.9534 67.7048 23.7587L81.4188 19.8979L81.4287 19.8946C82.769 19.4986 83.7462 18.6275 84.1028 17.5088C84.4626 16.3902 84.1721 15.1165 83.3071 14.0143Z"/></g></g><defs><clipPath id="clip0"><rect width="114" height="37.48" fill="#fff"/></clipPath><clipPath id="clip1"><rect width="114" height="37.48" fill="#fff"/></clipPath></defs></svg>