<svg viewBox="0 0 100 47.11" xmlns="http://www.w3.org/2000/svg"><path d="m100 43.43-2.9-6.27a.38.38 0 0 0 -.5-.18c-.88.42-3.29 1.92-5.36 1.92-5.24 0-5.53-5-5.53-9.16v-10a.38.38 0 0 1 .37-.37h7.34a.38.38 0 0 0 .38-.37v-6.79a.38.38 0 0 0 -.38-.37h-7.34a.38.38 0 0 1 -.37-.37v-11.17a.3.3 0 0 0 -.39-.3l-7.79 2.6a.51.51 0 0 0 -.36.49v19.66c-9.77 8.83-17.8 16.3-25.23 16.3-7.08 0-12.94-6.55-12.94-14.17 0-7.79 5.43-13.4 12.13-13.4 6.48 0 8.72 4.47 8.72 4.47a142.92 142.92 0 0 1 -12 8.83.74.74 0 0 0 -.21 1.06l3.68 5.08a.72.72 0 0 0 1.07.21 153 153 0 0 0 17.4-13.24.74.74 0 0 0 .21-.8 20 20 0 0 0 -18.94-13.27c-11.47 0-20.69 8.87-20.69 21.06a23.48 23.48 0 0 0 2 9.41c-2.92 2.17-6.54 4.61-9.69 4.61-5.65 0-7.56-4.23-7.56-10v-9.2a.38.38 0 0 1 .37-.37h7.34a.38.38 0 0 0 .38-.38v-6.74a.38.38 0 0 0 -.38-.37h-7.32a.38.38 0 0 1 -.37-.37v-11.17a.3.3 0 0 0 -.39-.3l-7.75 2.61a.51.51 0 0 0 -.36.49v8.37a.38.38 0 0 1 -.38.37h-5.88a.38.38 0 0 0 -.38.38v6.78a.38.38 0 0 0 .38.38h5.84a.38.38 0 0 1 .38.37v10.74c0 9.26 5.81 16.33 15.58 16.33 5.88 0 11.83-3.71 14.73-5.8a20.31 20.31 0 0 0 14.88 6.09c10 0 16.5-5.81 25.57-13.42.48 7.71 5.12 13.13 13.09 13.13a18.75 18.75 0 0 0 9.29-2.73.52.52 0 0 0 .21-.66" fill="#0060f5"/></svg>